PathFileType	4	(X/Y/Z)	C:/Users/beibeiliu/ov580/test_trc\sequence.33_training_dense_right.trc
DataRate	CameraRate	NumFrames	NumMarkers	Units	OrigDataRate	OrigDataStartFrame	OrigNumFrames
120	120	21	19	mm	120	29	169
Frame#	Time	ThumbCMC			ThumbMCP			ThumbIP			ThumbTip			IndexMCP			IndexPIP			IndexTip			MiddleMCP			MiddlePIP			MiddleTip			RingMCP			RingPIP			RingTip			PinkyMCP			PinkyPIP			PinkyTip			BackHand1			BackHand2			BackHand3	
		X0	Y0	Z0	X1	Y1	Z1	X2	Y2	Z2	X3	Y3	Z3	X4	Y4	Z4	X5	Y5	Z5	X6	Y6	Z6	X7	Y7	Z7	X8	Y8	Z8	X9	Y9	Z9	X10	Y10	Z10	X11	Y11	Z11	X12	Y12	Z12	X13	Y13	Z13	X14	Y14	Z14	X15	Y15	Z15	X16	Y16	Z16	X17	Y17	Z17	X18	Y18	Z18	
28	0.233333	118.024	99.6093	8.75601	108.216	119.404	-6.76559	106.088	133.191	-19.2118	107.73	149.746	-29.3338	111.658	90.158	-55.3347	110.572	93.5736	-71.9388	113.44	95.5919	-97.2957	90.1543	71.0143	-57.854	81.4156	74.0268	-76.9114	69.9779	74.3255	-101.448	67.2848	66.3988	-44.882	49.8307	77.2783	-54.8638	33.9713	91.5427	-58.749	56.1956	61.1394	-24.3007	42.9641	77.2984	-25.2109	32.73	93.317	-21.8152	101.079	51.1882	-7.81805	110.8	47.6757	18.5952	122.286	70.9267	-3.77376	
29	0.241667	120.507	91.7285	11.033	111.13	112.169	-4.30787	112.221	129.378	-22.2028	111.987	141.289	-36.2851	106.571	81.8555	-56.7562	105.453	86.0529	-72.6163	104.605	88.4069	-94.0138	83.7042	69.2433	-57.0281	69.3468	77.5734	-74.3264	54.969	89.708	-93.934	64.7786	66.0885	-38.4087	47.093	86.2485	-44.7324	35.0851	105.859	-40.7708	56.7638	60.3049	-21.4701	43.5835	80.8035	-19.0819	38.4783	97.7266	-11.4201	97.572	45.9473	-7.8032	108.256	41.0825	19.3498	123.001	64.8059	0.882674	
30	0.25	122.813	88.5906	7.56315	114.716	107.712	-8.28607	113.497	120.995	-23.2708	114.475	132.601	-35.575	108.331	80.8626	-54.8577	98.764	83.0608	-74.6203	96.3646	87.1243	-93.5773	80.7454	71.2602	-53.5276	63.5542	85.0694	-68.7668	44.7281	101.418	-77.0151	62.4529	69.1057	-36.6845	50.291	91.9183	-36.0243	40.7194	111.792	-19.4111	57.5031	62.6292	-20.8608	50.4344	84.266	-16.5976	50.8163	100.535	-4.23638	95.0871	42.6641	-5.87575	106.309	40.5993	17.6329	122.376	58.2528	0.594057	
31	0.258333	122.981	85.1572	7.86506	115.167	104.618	-13.1884	115.824	116.097	-27.9102	119.454	129.646	-41.5788	104.196	75.3604	-53.7289	96.1824	84.6512	-75.8004	86.5767	91.1265	-94.7023	77.3749	72.56	-53.3553	60.1953	89.6345	-62.0504	43.9017	115.668	-62.3899	62.6286	73.4288	-35.2576	51.8213	96.2605	-27.8445	55.2846	112.775	-11.4798	54.4558	63.4703	-19.3373	52.3197	85.881	-14.4843	63.5491	101.144	0.802133	93.5253	43.1248	-6.88586	107.076	38.8979	19.2705	117.926	53.59	0.291615	
32	0.266667	127.074	83.5579	9.09611	119.98	100.945	-15.7477	122.439	111.291	-34.1244	123.679	121.012	-48.5564	105.418	72.3027	-54.054	95.9548	87.1138	-77.4345	84.4813	98.6671	-89.4174	80.8639	71.0573	-50.7001	65.1173	95.9945	-60.4281	49.7228	119.15	-48.6357	64.271	72.4094	-35.2585	58.2293	98.1455	-28.4075	65.2815	109.63	-3.26436	56.1144	64.3063	-21.306	51.9416	88.2406	-13.4746	72.8055	96.925	2.85463	89.9039	39.4503	-4.44432	98.4485	37.6931	19.9437	115.771	50.5039	-1.95432	
33	0.275	127.463	78.13	8.40224	126.825	94.2305	-12.9925	128.005	101.748	-34.4298	130.324	108.483	-55.6101	108.558	68.1596	-58.2516	96.9146	80.2905	-76.1355	80.8485	99.8792	-82.3878	80.9964	64.7645	-50.2732	68.7612	91.1499	-62.4435	63.5155	115.973	-46.2237	63.92	71.425	-38.8826	60.6537	96.1571	-32.3328	69.3283	104.001	-9.11175	55.3934	65.3251	-24.3945	55.3583	88.8737	-19.2872	75.5263	95.5959	1.00111	90.2678	37.5	-3.4985	98.8404	37.7608	19.339	119.37	49.6889	2.59725	
34	0.283333	129.294	71.9585	7.48192	135.09	84.2374	-17.5995	132.729	87.1467	-35.4199	133.358	92.474	-61.0898	105.593	58.1152	-53.9656	96.777	75.2543	-78.0452	85.096	96.9663	-76.817	86.8318	59.6594	-56.287	73.137	81.4644	-66.5101	72.0991	107.624	-44.4568	69.4873	62.2384	-42.2999	62.6482	86.5298	-42.6089	76.4334	99.689	-17.926	57.6129	59.7215	-26.4925	55.8434	83.7019	-26.8542	74.4822	92.623	-11.4219	88.433	37.9775	1.17288	98.9456	38.2266	24.8905	117.949	45.8167	1.72938	
35	0.291667	134.433	68.3249	13.624	143.747	74.0878	-16.7459	143.827	76.9326	-37.3064	132.483	78.5369	-57.2825	112.304	52.6261	-55.6908	97.6167	63.8101	-73.0258	91.3971	91.8877	-73.5873	88.5656	50.4179	-55.8763	75.3826	72.0226	-69.9081	73.1803	98.1784	-51.1932	71.7003	50.7752	-40.7577	67.1416	77.1654	-53.0101	71.9216	95.6823	-30.4163	61.2269	50.5929	-28.7786	56.3268	68.5077	-37.5989	69.2025	88.3344	-24.0838	95.4507	36.1736	1.60312	102.109	36.9091	28.7271	119.071	42.2078	5.26179	
36	0.3	139.324	66.2174	12.5891	150.64	70.9073	-9.8274	148.967	69.6837	-38.0143	138.153	74.7746	-55.9058	114.815	49.2836	-50.1315	106.141	59.3373	-74.5142	94.9359	85.0296	-72.755	97.8504	46.1534	-54.0484	82.2041	60.2237	-72.2329	80.0261	93.5362	-63.8016	80.8232	44.0301	-38.9221	70.4342	62.4604	-59.6822	72.0214	87.8306	-49.9267	67.2944	43.5311	-19.9798	56.3401	56.1652	-43.1109	62.3842	76.3287	-45.2862	98.5991	40.4494	3.29159	106.491	38.0553	24.2233	124.675	44.5272	9.00702	
37	0.308333	140.929	72.3591	18.5992	157.65	74.5939	-6.38075	156.284	73.8686	-34.9731	144.906	79.2119	-53.5308	122.227	53.4895	-46.4549	112.158	55.8885	-71.9639	104.956	84.9173	-79.6363	103.113	43.6808	-49.9275	87.9535	51.3404	-73.5975	78.7161	82.7843	-76.4999	88.0456	41.0921	-35.2038	77.7472	49.3895	-63.1303	73.6802	72.7299	-69.4949	71.8853	41.7407	-18.0077	61.0181	41.8879	-41.0934	58.8799	60.0654	-56.5365	101.587	42.838	5.4074	105.979	40.3109	25.8813	126.909	48.9218	5.09628	
38	0.316667	140.224	81.3852	20.5896	156.284	86.4588	-2.70403	158.96	87.4918	-29.5867	154.565	93.7965	-47.7865	126.842	59.6166	-48.4728	122.053	61.705	-74.3355	107.771	83.6717	-86.2091	106.975	46.9353	-46.2545	100.723	46.8031	-74.1084	85.3976	68.9126	-93.5111	94.2618	43.2411	-38.0287	85.3232	39.9249	-59.3718	77.7597	55.6606	-80.2659	77.2467	44.8842	-17.1183	67.3143	35.7242	-33.5548	60.8621	38.6651	-55.4679	103.18	50.6074	4.42353	110.097	48.3324	24.9211	128.323	55.925	6.91557	
39	0.325	136.326	97.0306	22.5199	147.828	105.176	-1.83816	152.155	109.692	-22.6606	155.363	118.471	-38.679	130.351	78.3369	-42.7138	131.378	75.5779	-70.5813	117.971	87.3506	-93.2742	117.171	57.3491	-48.9446	110.32	51.0911	-75.3861	95.9899	56.6049	-99.9733	98.2801	46.4657	-39.041	96.4635	42.1732	-61.1837	88.6989	45.0387	-84.6937	85.1143	45.2835	-21.3248	77.6407	31.8435	-35.9598	71.6042	24.8679	-55.237	104.335	53.9964	3.21703	109.344	54.0617	28.4329	130.045	69.1043	7.79704	
40	0.333333	120.864	109.927	24.7859	125.308	125.261	8.05061	133.26	137.435	-9.16959	139.033	147.295	-23.7521	126.425	97.4258	-40.3763	126.49	96.2255	-65.8408	118.44	101.661	-92.7745	119.783	69.6527	-44.9501	122.025	67.8595	-68.271	118.364	62.793	-97.3658	106.911	54.4801	-34.9595	111.264	50.0338	-58.7302	110.146	44.4561	-79.4053	94.9873	41.8029	-19.7419	95.9749	29.9252	-35.2469	98.268	19.5045	-50.3041	111.79	62.3411	3.47702	116.29	59.9938	28.6819	124.183	81.8445	12.6455	
41	0.341667	100.535	112.51	31.3558	97.9821	131.39	18.167	102.825	146.1	-0.252059	105.716	164.304	-8.04612	113.056	112.462	-35.8082	112.915	113.626	-60.2299	108.931	118.229	-81.8504	122.075	86.1903	-43.7442	125.77	81.9585	-64.6026	130.42	78.5485	-91.2044	118.946	63.5437	-34.9401	124.254	64.0866	-52.2105	130.251	58.1985	-76.7862	110.535	46.2229	-16.1541	119.925	39.2104	-35.911	127.519	30.1156	-45.01	117.897	68.3761	9.55626	118.138	68.1454	29.9589	118.225	95.7926	19.1929	
42	0.35	83.4517	106.351	36.2421	72.4103	121.528	23.8673	68.9981	141.712	8.78625	64.6347	158.916	5.10912	94.1219	112.697	-34.3739	90.787	114.642	-53.1586	84.5333	117.145	-75.5992	115.143	95.049	-38.9167	118.649	96.2809	-55.909	126.271	100.642	-80.958	119.912	78.8687	-28.8713	129.111	79.9115	-48.4283	135.124	83.1864	-65.5562	124.58	55.8836	-12.638	134.489	54.4475	-25.8483	149.015	54.5965	-39.3664	118.71	78.1055	14.4825	120.43	76.1422	34.8869	106.48	101.295	21.8826	
43	0.358333	67.5351	99.4566	43.4195	53.3848	107.142	29.1294	40.9398	121.66	17.3633	30.3024	133.099	12.7557	73.495	108.33	-25.419	61.8849	108.537	-51.2324	55.1986	104.716	-68.9385	97.1308	103.655	-30.4616	97.2002	110.526	-53.136	102.372	116.928	-73.9601	114.093	93.2606	-22.9519	120.079	100.728	-45.3967	128.412	104.737	-60.4597	129.39	76.1886	-10.6203	135.686	80.8676	-24.5672	149.309	86.9512	-34.0173	112.512	90.3761	18.7225	116.105	89.9874	39.4597	95.1525	102.31	30.6366	
44	0.366667	63.0829	91.7791	42.0065	44.0233	94.1016	32.4768	26.7465	102.057	20.1412	10.4959	109.171	14.1035	54.4951	102.574	-26.603	46.3675	94.4934	-43.6728	43.1145	81.8197	-65.5491	80.9257	109.003	-31.9947	81.637	112.572	-53.6483	80.0107	120.247	-75.586	104.065	106.065	-26.0771	105.462	115.429	-44.1163	110.74	122.705	-59.0312	119.581	94.2233	-11.8167	130.538	101.965	-24.3563	135.572	114.464	-33.1725	105.329	103.347	15.8757	109.752	98.7658	43.6161	82.3036	106.428	33.7561	
45	0.375	58.0346	87.1156	43.0178	36.536	82.1251	29.9729	17.7948	82.4987	17.5514	1.06311	81.3842	9.18291	47.8568	96.6918	-21.7458	38.8017	80.6459	-40.5983	38.2706	61.9442	-59.942	66.6084	110.15	-30.5383	62.8864	111.063	-50.4585	62.0612	115.942	-76.8593	89.6856	112.238	-22.4804	89.5946	122.743	-44.2181	90.3635	133.402	-58.6448	114.191	110.248	-12.1135	115.292	116.067	-23.536	124.577	132.734	-28.4164	92.9187	109.938	18.3332	103.434	111.225	43.6964	69.0395	109.033	32.2033	
46	0.383333	51.8881	80.587	42.5953	39.4252	68.1566	26.8221	22.2606	59.2344	8.98813	14.5073	52.8027	-0.239885	38.1495	87.6853	-19.8634	37.8914	74.1268	-41.3485	43.7425	53.723	-59.931	57.3776	109.523	-30.0829	51.3767	108.975	-53.1204	49.3409	111.073	-77.3606	77.5178	118.144	-22.7729	74.6737	127.137	-44.2721	72.4243	137.566	-59.7221	104.287	123.55	-12.1292	107.466	133.459	-24.9049	104.691	145.508	-31.2651	85.7055	117.766	14.0224	90.2388	119.898	39.4976	63.0239	110.014	32.0941	
47	0.391667	53.4813	77.4258	43.1334	43.2678	55.1189	24.6351	35.3601	43.0817	7.58249	32.0914	35.7075	-10.6647	32.9036	82.2255	-17.9151	34.3776	71.127	-43.5697	38.8317	52.3738	-58.0344	48.8414	109.428	-31.3157	41.715	107.336	-55.328	35.9877	107.91	-78.5923	66.9427	121.239	-21.8457	63.5243	131.08	-44.4441	57.7066	137.115	-58.2481	89.8728	129.547	-11.8344	88.936	137.87	-25.7257	87.5603	152.115	-32.6835	72.5766	122.5	19.2975	75.4813	121.719	45.4922	52.75	106.634	36.6449	
48	0.4	48.0064	71.0446	43.6556	49.192	48.1922	26.8713	47.6393	34.4842	5.50515	49.3375	24.6101	-7.1895	26.1789	79.0322	-22.3774	24.1486	67.5892	-38.0474	29.947	58.1189	-59.5132	39.0156	107.139	-28.9046	31.8193	104.659	-49.9728	26.0281	107.087	-74.2862	53.1461	119.662	-21.4225	51.3418	125.9	-39.7483	45.822	135.622	-62.0886	78.2082	130.619	-9.80832	81.7488	140.844	-24.8192	77.8884	148.968	-39.8225	60.4413	121.453	22.9103	62.0588	124.274	44.8495	41.6266	103.136	37.075	
